{"title":"Sherlock Holmes Game of Shadows.2011.DVDRip.XviD-BiDA","uid":7187472,"size":738805926,"categoryP":"video","categoryS":"movies","magnet":"?xt=urn:btih:b220b97fff11b830775b779951ce0dbba88fc4fc&amp;dn=Sherlock+Holmes+Game+of+Shadows.2011.DVDRip.XviD-BiDA&amp;tr=udp%3A%2F%2Ftracker.openbittorrent.com%3A80&amp;tr=udp%3A%2F%2Fopen.demonii.com%3A1337&amp;tr=udp%3A%2F%2Ftracker.coppersurfer.tk%3A6969&amp;tr=udp%3A%2F%2Fexodus.desync.com%3A6969","seeders":0,"leechers":1,"uploader":"neon","files":-1,"time":1334498026,"description":"Sherlock Holmes and his sidekick Dr. Watson join forces to outwit and bring down their fiercest adversary, Professor Moriarty.\n\n\nDirector: Guy Ritchie\nWriters: Michele Mulroney, Kieran Mulroney\nStars:Robert Downey Jr., Jude Law and Jared Harris \n\n\n &lt;a href=&quot; http://www.imdb.com/title/tt1515091/&quot; rel=&quot;nofollow&quot; target=&quot;_NEW&quot;&gt; http://www.imdb.com/title/tt1515091/&lt;/a&gt;\n &lt;a href=&quot;\nhttp://www.prikachi.com/images/419/4649419B.jpg&quot; rel=&quot;nofollow&quot; target=&quot;_NEW&quot;&gt;\nhttp://www.prikachi.com/images/419/4649419B.jpg&lt;/a&gt; &lt;a href=&quot;\nhttp://www.prikachi.com/images/420/4649420g.jpg&quot; rel=&quot;nofollow&quot; target=&quot;_NEW&quot;&gt;\nhttp://www.prikachi.com/images/420/4649420g.jpg&lt;/a&gt; &lt;a href=&quot;\nhttp://www.prikachi.com/images/421/4649421L.jpg&quot; rel=&quot;nofollow&quot; target=&quot;_NEW&quot;&gt;\nhttp://www.prikachi.com/images/421/4649421L.jpg&lt;/a&gt;\n\nFormat : AVI\nFormat/Info : Audio Video Interleave\nFile size : 699 MiB\nDuration : 2h 3mn\nOverall bit rate : 792 Kbps\nWriting application : transcode-1.1.5\n\nVideo\nID : 0\nFormat : MPEG-4 Visual\nFormat profile : Advanced Simple@L5\nFormat settings, BVOP : 1\nFormat settings, QPel : No\nFormat settings, GMC : No warppoints\nFormat settings, Matrix : Default (H.263)\nCodec ID : XVID\nCodec ID/Hint : XviD\nDuration : 2h 3mn\nBit rate : 654 Kbps\nWidth : 624 pixels\nHeight : 288 pixels\nDisplay aspect ratio : 2.2:1\nFrame rate : 25.000 fps\nColor space : YUV\nChroma subsampling : 4:2:0\nBit depth : 8 bits\nScan type : Progressive\nCompression mode : Lossy\nBits/(Pixel*Frame) : 0.146\nStream size : 577 MiB (83%)\nWriting library : XviD 1.2.1 (UTC 2008-12-04)\n\nAudio\nID : 1\nFormat : MPEG Audio\nFormat version : Version 1\nFormat profile : Layer 3\nMode : Joint stereo\nMode extension : MS Stereo\nCodec ID : 55\nCodec ID/Hint : MP3\nDuration : 2h 3mn\nBit rate mode : Constant\nBit rate : 128 Kbps\nChannel(s) : 2 channels\nSampling rate : 48.0 KHz\nCompression mode : Lossy\nStream size : 113 MiB (16%)\nAlignment : Split accross interleaves\nInterleave, duration : 40 ms (1.00 video frame)\nWriting library : LAME3.98.2\n","torrent":{"xt":"urn:btih:b220b97fff11b830775b779951ce0dbba88fc4fc","amp;dn":"Sherlock+Holmes+Game+of+Shadows.2011.DVDRip.XviD-BiDA","amp;tr":["udp%3A%2F%2Ftracker.openbittorrent.com%3A80","udp%3A%2F%2Fopen.demonii.com%3A1337","udp%3A%2F%2Ftracker.coppersurfer.tk%3A6969","udp%3A%2F%2Fexodus.desync.com%3A6969"],"infoHash":"b220b97fff11b830775b779951ce0dbba88fc4fc","infoHashBuffer":{"type":"Buffer","data":[178,32,185,127,255,17,184,48,119,91,119,153,81,206,13,187,168,143,196,252]},"announce":[],"urlList":[]}}